<svg xmlns="http://www.w3.org/2000/svg" width="512" height="512" viewBox="0 0 512 512">
  <rect width="512" height="512" rx="120" fill="#FFF8EC" />
  
  <!-- The Cross -->
  <rect x="236" y="116" width="40" height="230" rx="6" fill="#D32F2F" />
  <rect x="166" y="186" width="180" height="40" rx="6" fill="#D32F2F" />

  <!-- The Lotus Base (CNI Symbol) -->
  <path d="M 186 346 C 186 346 226 416 256 416 C 286 416 326 346 326 346 C 296 376 276 376 256 386 C 236 376 216 376 186 346 Z" fill="#D32F2F"/>
  <path d="M 256 386 C 226 316 196 286 146 276 C 176 296 216 326 256 386 Z" fill="#D32F2F"/>
  <path d="M 256 386 C 286 316 316 286 366 276 C 336 296 296 326 256 386 Z" fill="#D32F2F"/>
</svg>
